<?xml version="1.0" encoding="UTF-8"?>
<svg id="Layer_1" data-name="Layer 1" xmlns="http://www.w3.org/2000/svg" xmlns:xlink="http://www.w3.org/1999/xlink" viewBox="0 0 410.79 148.42">
  <defs>
    <style>
      .cls-1 {
        fill: #fff;
      }

      .cls-2 {
        isolation: isolate;
        opacity: .43;
      }

      .cls-3 {
        fill: #183159;
      }
    </style>
  </defs>
  <g>
    <path class="cls-3" d="m148.42,74.21c0,39.17-30.34,71.25-68.81,74.02-1.78.13-3.58.19-5.4.19s-3.62-.07-5.4-.19C30.35,145.46,0,113.38,0,74.21c0-12.06,2.87-23.44,7.98-33.51,1.92-3.8,4.17-7.41,6.69-10.8C28.21,11.76,49.84,0,74.21,0s46.01,11.76,59.54,29.91c2.52,3.39,4.77,7,6.69,10.8,5.11,10.06,7.98,21.45,7.98,33.51Z"/>
    <g>
      <g>
        <image class="cls-2" width="348" height="466" transform="translate(20.69 21.2) scale(.24)" xlink:href="FF182A30.png"/>
        <g>
          <path class="cls-1" d="m30.33,81.01h0l6.99-5.61c5.46-4.43,6.96-6.66,7.21-7.53l.05-.21h0l1.27-4.86c1.08-4.14,5.94-4.14,5.94-4.14h13.06v40.75H31.27c-1.45-.1-4.41-.83-4.41-5.11v-6.77c0-.6-.02-3.9,3.47-6.52Z"/>
          <path class="cls-1" d="m55.04,56.54c-1.39,0-2.54-.44-3.47-1.32-.93-.88-1.39-1.96-1.39-3.26,0-1.39.46-2.52,1.39-3.4.92-.88,2.08-1.32,3.47-1.32h35.36c1.39,0,2.54.44,3.47,1.32.92.88,1.39,2.01,1.39,3.4,0,1.3-.46,2.38-1.39,3.26-.93.88-2.08,1.32-3.47,1.32h-35.36Zm34.52,63.78c-4.9,0-9.27-1.15-13.1-3.47-3.84-2.31-6.86-5.48-9.08-9.5-2.22-4.02-3.33-8.62-3.33-13.8V25.76c0-1.57.49-2.86,1.46-3.88.97-1.02,2.24-1.52,3.81-1.52s2.86.51,3.88,1.52c1.02,1.02,1.52,2.31,1.52,3.88v67.8c0,4.71,1.39,8.58,4.16,11.58,2.77,3.01,6.33,4.51,10.68,4.51h3.74c1.48,0,2.68.51,3.6,1.52.92,1.02,1.39,2.31,1.39,3.88s-.55,2.84-1.66,3.81c-1.11.97-2.5,1.46-4.16,1.46h-2.91Z"/>
        </g>
      </g>
      <path class="cls-3" d="m32.84,99.41c0,6.51,5.28,11.8,11.79,11.8s11.79-5.28,11.79-11.8-5.28-11.79-11.79-11.79-11.79,5.28-11.79,11.79Z"/>
      <path class="cls-3" d="m48.96,74.34c0,.89.72,1.62,1.62,1.62h6.82c.89,0,1.62-.73,1.62-1.62v-9.42c0-.9-.73-1.62-1.62-1.62h-6.82c-.89,0-1.62.73-1.62,1.62,0,0,0,9.42,0,9.42Z"/>
    </g>
    <g>
      <path class="cls-1" d="m100.3,78.92c-.69,0-1.3-.16-1.85-.48s-.98-.75-1.3-1.3c-.32-.55-.49-1.17-.49-1.85v-6.22c0-.16.05-.28.14-.38s.22-.14.38-.14c.15,0,.27.05.36.14s.14.22.14.38v3.88c.29-.41.67-.74,1.15-1,.48-.25,1.01-.38,1.6-.38.68,0,1.28.16,1.82.48.54.32.96.76,1.27,1.31.31.55.47,1.18.47,1.87s-.16,1.33-.48,1.89-.76.99-1.31,1.31c-.55.32-1.18.48-1.89.48Zm0-.92c.51,0,.97-.12,1.37-.36.4-.24.72-.57.96-.98.23-.41.35-.88.35-1.41s-.12-.99-.35-1.4-.55-.74-.96-.98c-.4-.24-.86-.36-1.37-.36s-.95.12-1.36.36c-.4.24-.72.57-.95.98s-.34.89-.34,1.4.11,1,.34,1.41c.23.41.54.74.95.98.41.24.86.36,1.36.36Z"/>
      <path class="cls-1" d="m108.67,78.63c-.13.06-.26.07-.37.03-.11-.04-.21-.12-.28-.26l-2.94-6.09c-.06-.13-.07-.25-.03-.37.04-.11.13-.2.26-.26.13-.06.26-.07.37-.03s.2.12.26.26l2.89,6.09c.07.13.09.26.07.37-.03.12-.11.2-.24.26Zm-1.46,3.36c-.07,0-.15-.02-.24-.05-.3-.13-.38-.34-.25-.63l4.26-9.39c.13-.28.34-.36.63-.24.3.12.38.33.25.62l-4.27,9.39c-.09.2-.22.3-.38.3Z"/>
      <path class="cls-1" d="m116.47,78.92c-.7,0-1.33-.16-1.88-.48s-.99-.75-1.3-1.3-.48-1.18-.48-1.89.16-1.35.48-1.9c.32-.55.75-.99,1.3-1.31s1.18-.48,1.88-.48,1.33.16,1.88.48.98.75,1.3,1.31c.32.55.48,1.19.49,1.9,0,.7-.16,1.33-.48,1.89s-.76.99-1.3,1.3-1.18.48-1.88.48Zm0-.92c.51,0,.97-.12,1.37-.36s.72-.56.95-.98c.23-.41.34-.88.34-1.41s-.12-1-.34-1.42c-.23-.42-.54-.74-.95-.98-.4-.24-.86-.36-1.37-.36s-.97.12-1.37.36c-.4.24-.72.57-.96.98-.23.42-.35.89-.35,1.42s.12,1,.35,1.41c.23.41.55.74.96.98s.86.36,1.37.36Z"/>
      <path class="cls-1" d="m122.63,78.86c-.16,0-.28-.05-.38-.14-.09-.09-.14-.21-.14-.36v-6.2c0-.16.05-.28.14-.38s.22-.14.38-.14c.15,0,.27.05.36.14s.14.22.14.38v6.2c0,.15-.05.27-.14.36-.09.09-.21.14-.36.14Zm5.67,0c-.15,0-.27-.05-.37-.15-.1-.1-.15-.21-.15-.36v-3.43c0-.55-.1-.99-.31-1.35s-.49-.61-.84-.79c-.36-.17-.76-.26-1.21-.26s-.82.08-1.17.25c-.35.17-.62.4-.82.69s-.3.62-.3.99h-.73c.02-.55.17-1.05.45-1.48s.65-.78,1.12-1.03.98-.38,1.56-.38c.62,0,1.18.13,1.68.39.49.26.88.64,1.17,1.14.29.5.43,1.11.43,1.83v3.43c0,.14-.05.26-.15.36-.1.1-.22.15-.36.15Z"/>
      <path class="cls-1" d="m134.31,78.92c-.71,0-1.34-.16-1.89-.47-.55-.31-.98-.74-1.29-1.3-.31-.55-.47-1.19-.47-1.9s.15-1.36.44-1.9c.29-.55.7-.98,1.22-1.3s1.12-.48,1.79-.48,1.25.15,1.75.45.88.72,1.15,1.26c.27.54.41,1.15.41,1.83,0,.14-.04.25-.13.34-.09.08-.2.12-.34.12h-5.6v-.84h5.71l-.57.41c0-.51-.08-.97-.28-1.37-.19-.4-.47-.72-.82-.95-.36-.23-.78-.34-1.27-.34s-.94.12-1.32.36c-.38.24-.67.57-.88.98-.21.42-.31.89-.31,1.43s.12,1.01.35,1.42c.23.41.55.74.96.98s.87.36,1.4.36c.32,0,.63-.05.96-.17.32-.11.58-.25.77-.42.1-.08.21-.12.33-.12.12,0,.23.03.32.1.11.11.17.22.18.34s-.05.23-.15.32c-.29.25-.66.45-1.11.61-.45.16-.88.25-1.29.25Z"/>
    </g>
  </g>
  <g id="ucation">
    <g>
      <path class="cls-3" d="m173.36,59.46c-.92-.19-1.85-.29-2.79-.32-2.69,0-5.15.82-7.39,2.46s-3.74,3.72-4.49,6.24l-4.52,26.3h-4.17l6.64-38.24h4.13l-1.27,6.08c1.39-2.26,3.07-3.98,5.04-5.16,1.97-1.18,4.13-1.74,6.49-1.7.82,0,1.79.17,2.9.49l-.57,3.85Z"/>
      <path class="cls-3" d="m196.33,94.13c-.12-.9-.15-1.79-.11-2.69l.32-2.65c-1.77,1.91-3.79,3.4-6.06,4.49-2.27,1.08-4.73,1.6-7.37,1.56-3.23-.05-5.85-1.07-7.86-3.06-2.01-1.99-2.92-4.49-2.7-7.51.19-2.52,1.05-4.71,2.6-6.56,1.54-1.85,3.74-3.29,6.59-4.31,2.85-1.02,6.04-1.54,9.58-1.54l7.81.04.64-4.38c.28-2.61-.28-4.71-1.7-6.29-1.41-1.58-3.5-2.42-6.26-2.51-2.78-.05-5.2.64-7.26,2.07-2.06,1.43-3.35,3.3-3.87,5.64h-4.13c.47-3.35,2.19-6.07,5.16-8.18,2.97-2.11,6.48-3.14,10.53-3.09,3.93.1,6.97,1.29,9.1,3.57,2.13,2.29,3,5.25,2.6,8.91l-3.18,19.23-.28,3.07c-.07,1.27.02,2.53.28,3.78l-.07.42h-4.35Zm-12.51-2.97c2.59.1,5.07-.52,7.44-1.86s4.33-3.23,5.89-5.69l1.45-8.46-6.75-.04c-4.29,0-7.79.76-10.5,2.29-2.71,1.52-4.21,3.7-4.49,6.54-.21,2.08.34,3.79,1.64,5.14,1.31,1.35,3.08,2.04,5.32,2.09Z"/>
      <path class="cls-3" d="m221.18,55.89l-1.27,6.54c1.7-2.36,3.66-4.17,5.89-5.42,2.23-1.26,4.61-1.87,7.16-1.82,3.68.09,6.35,1.38,8.02,3.85,1.67,2.47,2.26,5.88,1.77,10.21l-4.17,24.88h-4.17l4.17-24.93c.14-1.34.16-2.64.07-3.88-.4-4.19-2.69-6.34-6.86-6.46-2.47-.05-4.78.69-6.93,2.21-2.14,1.52-4.03,3.81-5.65,6.87l-4.52,26.2h-4.17l6.64-38.24h4.03Z"/>
      <path class="cls-3" d="m273.59,84.16c.38-3.25-1.6-5.61-5.94-7.07l-6.08-1.8c-5.58-1.89-8.22-5.03-7.92-9.44.16-3.18,1.63-5.77,4.4-7.76,2.77-1.99,6.06-2.96,9.88-2.92,3.75.05,6.79,1.1,9.12,3.16,2.33,2.06,3.42,4.81,3.25,8.25h-4.17c.14-2.29-.57-4.15-2.14-5.58-1.57-1.44-3.65-2.18-6.24-2.23-2.69,0-4.95.63-6.79,1.89s-2.88,2.93-3.11,5c-.35,3.04,1.51,5.17,5.58,6.4l4.42,1.27,2.37.81c5.33,2,7.83,5.27,7.53,9.79-.19,3.06-1.51,5.58-3.98,7.55-2.46,1.97-5.64,3.07-9.52,3.3l-1.45.04c-2.57-.05-4.89-.55-6.96-1.5-2.07-.95-3.66-2.29-4.77-4.01-1.11-1.72-1.59-3.7-1.45-5.94l4.21.04c0,2.4.81,4.3,2.44,5.69,1.63,1.39,3.86,2.11,6.71,2.16,2.83,0,5.23-.64,7.21-1.93,1.98-1.28,3.11-3.01,3.39-5.17Z"/>
      <path class="cls-3" d="m301.37,94.87c-2.19-.05-4.26-.51-6.2-1.4-1.94-.88-3.52-2.27-4.72-4.15l-3.54,19.51h-4.17l9.19-52.94h3.89l-.99,5.41c3.32-4.22,7.48-6.26,12.48-6.11,3.58.09,6.37,1.43,8.38,3.99,2,2.57,3.04,6.21,3.11,10.92.02,1.48-.05,2.92-.21,4.31l-.14.99c-.59,4.12-1.7,7.68-3.32,10.67-1.63,2.99-3.61,5.23-5.94,6.7-2.33,1.47-4.94,2.17-7.81,2.1Zm13.01-20.45l.21-3.35c.07-3.77-.61-6.72-2.05-8.86-1.44-2.14-3.57-3.26-6.4-3.35-2.47-.05-4.72.56-6.73,1.82-2.02,1.26-3.72,3.09-5.11,5.49l-3.15,18.39c.75,2.17,1.95,3.81,3.59,4.94,1.64,1.13,3.6,1.73,5.89,1.8,3.42.12,6.31-1.16,8.68-3.83,2.37-2.67,3.96-6.4,4.79-11.17l.28-1.87Z"/>
      <path class="cls-3" d="m325.61,74.66c.42-3.7,1.56-7.09,3.39-10.16s4.13-5.41,6.87-7.02c2.74-1.6,5.72-2.37,8.92-2.3,3.16.05,5.85.91,8.08,2.6s3.85,3.98,4.88,6.89c1.02,2.91,1.37,6.13,1.04,9.67l-.07.67c-.71,6.03-2.85,10.88-6.42,14.53-3.57,3.65-7.85,5.42-12.85,5.3-4.29-.07-7.72-1.65-10.28-4.74-2.57-3.09-3.83-7.16-3.78-12.23l.11-2.02.11-1.2Zm4.1,1.2c-.31,2.8-.1,5.39.62,7.76s1.87,4.22,3.45,5.57c1.58,1.34,3.55,2.05,5.9,2.12,2.55.05,4.87-.6,6.98-1.94s3.85-3.24,5.21-5.69c1.37-2.45,2.25-5.16,2.65-8.13l.11-1.17c.42-4.55-.28-8.26-2.1-11.15s-4.47-4.36-7.93-4.44c-3.77-.12-7.03,1.34-9.77,4.36-2.74,3.03-4.42,7.05-5.04,12.07l-.07.64Z"/>
      <path class="cls-3" d="m387.64,59.46c-.92-.19-1.85-.29-2.79-.32-2.69,0-5.15.82-7.39,2.46-2.24,1.64-3.73,3.72-4.49,6.24l-4.52,26.3h-4.17l6.64-38.24h4.14l-1.27,6.08c1.39-2.26,3.07-3.98,5.04-5.16,1.97-1.18,4.13-1.74,6.49-1.7.82,0,1.79.17,2.9.49l-.57,3.85Z"/>
      <path class="cls-3" d="m404.82,46.1l-1.7,9.79h7.67l-.6,3.46h-7.67l-4.24,25.52-.07,2.19c0,2.57,1.18,3.89,3.53,3.96.73.02,1.87-.06,3.43-.25l-.18,3.46c-1.39.4-2.8.58-4.24.53-2.47-.05-4.28-.91-5.41-2.6-1.13-1.68-1.54-4.13-1.24-7.33l4.21-25.48h-6.86l.64-3.46h6.79l1.73-9.79h4.21Z"/>
    </g>
  </g>
</svg>